<?xml version="1.0" encoding="UTF-8"?>
<svg xmlns="http://www.w3.org/2000/svg" viewBox="0 0 174 39" width="174" height="39">
  <!--
    Bitcraft Logotype - Dark Olive
    https://github.com/bitcraft-apps/brand
    "Bitcraft" in Poppins SemiBold (text converted to paths)
  -->
  <g transform="translate(-3.31, -12.77)">
    <path fill="#556B2F" d="M22.32 33.22Q25.15 33.74 26.98 36.05Q28.80 38.35 28.80 41.33L28.80 41.33Q28.80 44.02 27.48 46.06Q26.16 48.10 23.66 49.25Q21.17 50.40 17.76 50.40L17.76 50.40L3.31 50.40L3.31 16.90L17.14 16.90Q20.54 16.90 23.02 18Q25.49 19.10 26.76 21.07Q28.03 23.04 28.03 25.54L28.03 25.54Q28.03 28.46 26.47 30.43Q24.91 32.40 22.32 33.22L22.32 33.22ZM10.03 22.32L10.03 30.72L16.18 30.72Q18.58 30.72 19.87 29.64Q21.17 28.56 21.17 26.54L21.17 26.54Q21.17 24.53 19.87 23.42Q18.58 22.32 16.18 22.32L16.18 22.32L10.03 22.32ZM16.80 44.93Q19.25 44.93 20.62 43.78Q21.98 42.62 21.98 40.51L21.98 40.51Q21.98 38.35 20.54 37.13Q19.10 35.90 16.66 35.90L16.66 35.90L10.03 35.90L10.03 44.93L16.80 44.93ZM37.58 20.64Q35.81 20.64 34.63 19.51Q33.46 18.38 33.46 16.70L33.46 16.70Q33.46 15.02 34.63 13.90Q35.81 12.77 37.58 12.77L37.58 12.77Q39.36 12.77 40.54 13.90Q41.71 15.02 41.71 16.70L41.71 16.70Q41.71 18.38 40.54 19.51Q39.36 20.64 37.58 20.64L37.58 20.64ZM34.18 23.81L40.90 23.81L40.90 50.40L34.18 50.40L34.18 23.81ZM61.30 29.33L55.34 29.33L55.34 42.19Q55.34 43.54 55.99 44.14Q56.64 44.74 58.18 44.74L58.18 44.74L61.30 44.74L61.30 50.40L57.07 50.40Q48.58 50.40 48.58 42.14L48.58 42.14L48.58 29.33L45.41 29.33L45.41 23.81L48.58 23.81L48.58 17.23L55.34 17.23L55.34 23.81L61.30 23.81L61.30 29.33ZM64.42 37.10Q64.42 32.98 66.10 29.88Q67.78 26.78 70.75 25.08Q73.73 23.38 77.57 23.38L77.57 23.38Q82.51 23.38 85.75 25.85Q88.99 28.32 90.10 32.78L90.10 32.78L82.85 32.78Q82.27 31.06 80.90 30.07Q79.54 29.09 77.52 29.09L77.52 29.09Q74.64 29.09 72.96 31.18Q71.28 33.26 71.28 37.10L71.28 37.10Q71.28 40.90 72.96 42.98Q74.64 45.07 77.52 45.07L77.52 45.07Q81.60 45.07 82.85 41.42L82.85 41.42L90.10 41.42Q88.99 45.74 85.73 48.29Q82.46 50.83 77.57 50.83L77.57 50.83Q73.73 50.83 70.75 49.13Q67.78 47.42 66.10 44.33Q64.42 41.23 64.42 37.10L64.42 37.10ZM101.76 27.94Q103.06 25.82 105.14 24.62Q107.23 23.42 109.92 23.42L109.92 23.42L109.92 30.48L108.14 30.48Q104.98 30.48 103.37 31.97Q101.76 33.46 101.76 37.15L101.76 37.15L101.76 50.40L95.04 50.40L95.04 23.81L101.76 23.81L101.76 27.94ZM112.70 37.01Q112.70 32.98 114.31 29.86Q115.92 26.74 118.68 25.06Q121.44 23.38 124.85 23.38L124.85 23.38Q127.82 23.38 130.06 24.58Q132.29 25.78 133.63 27.60L133.63 27.60L133.63 23.81L140.40 23.81L140.40 50.40L133.63 50.40L133.63 46.51Q132.34 48.38 130.06 49.61Q127.78 50.83 124.80 50.83L124.80 50.83Q121.44 50.83 118.68 49.10Q115.92 47.38 114.31 44.23Q112.70 41.09 112.70 37.01L112.70 37.01ZM133.63 37.10Q133.63 34.66 132.67 32.90Q131.71 31.15 130.08 30.22Q128.45 29.28 126.58 29.28L126.58 29.28Q124.70 29.28 123.12 30.19Q121.54 31.10 120.55 32.86Q119.57 34.61 119.57 37.01L119.57 37.01Q119.57 39.41 120.55 41.21Q121.54 43.01 123.14 43.97Q124.75 44.93 126.58 44.93L126.58 44.93Q128.45 44.93 130.08 43.99Q131.71 43.06 132.67 41.30Q133.63 39.55 133.63 37.10L133.63 37.10ZM159.17 23.81L159.17 29.33L154.51 29.33L154.51 50.40L147.70 50.40L147.70 29.33L144.67 29.33L144.67 23.81L147.70 23.81L147.70 22.46Q147.70 17.57 150.48 15.26Q153.26 12.96 158.88 13.10L158.88 13.10L158.88 18.77Q156.43 18.72 155.47 19.58Q154.51 20.45 154.51 22.70L154.51 22.70L154.51 23.81L159.17 23.81ZM177.31 29.33L171.36 29.33L171.36 42.19Q171.36 43.54 172.01 44.14Q172.66 44.74 174.19 44.74L174.19 44.74L177.31 44.74L177.31 50.40L173.09 50.40Q164.59 50.40 164.59 42.14L164.59 42.14L164.59 29.33L161.42 29.33L161.42 23.81L164.59 23.81L164.59 17.23L171.36 17.23L171.36 23.81L177.31 23.81L177.31 29.33Z"/>
  </g>
</svg>
